<svg xmlns="http://www.w3.org/2000/svg" xmlns:xlink="http://www.w3.org/1999/xlink" width="128" height="128" x="0" y="0" enable-background="new 0 0 350 350" version="1.1" viewBox="0 0 350 350" xml:space="preserve"><rect width="350" height="350" fill="#2EB398" opacity=".8"/><g><path fill="#FFF" d="M308.349,41.651v266.697H41.651V41.651H308.349 M309.349,40.651h-1H41.651h-1v1v266.697v1h1h266.697h1v-1 V41.651V40.651L309.349,40.651z"/></g><path fill="#FFF" d="M162.085,220.285h92.233v38.733h-92.233c-47.959,0-66.403-19.984-66.403-59.948V90.981h47.958V199.07	C143.64,205.957,147.358,220.285,162.085,220.285z"/><path fill="#4D4D4D" d="M162.085,220.285c-14.727,0-18.445-14.328-18.445-21.215v-0.407	c0,42.868-2.797,60.355,16.32,60.355h94.358v-38.733H162.085z" opacity=".3"/></svg>